<mxfile host="Electron" modified="2024-01-10T15:21:54.427Z" agent="Mozilla/5.0 (Windows NT 10.0; Win64; x64) AppleWebKit/537.36 (KHTML, like Gecko) draw.io/22.1.16 Chrome/120.0.6099.109 Electron/28.1.0 Safari/537.36" etag="2HvnH3rZ-DrjQ4uRsfoA" version="22.1.16" type="device">
  <diagram id="C5RBs43oDa-KdzZeNtuy" name="Page-1">
    <mxGraphModel dx="3274" dy="1196" grid="1" gridSize="10" guides="1" tooltips="1" connect="1" arrows="1" fold="1" page="1" pageScale="1" pageWidth="1200" pageHeight="1600" math="0" shadow="0">
      <root>
        <mxCell id="WIyWlLk6GJQsqaUBKTNV-0" />
        <mxCell id="WIyWlLk6GJQsqaUBKTNV-1" parent="WIyWlLk6GJQsqaUBKTNV-0" />
        <mxCell id="4mX_bAGIScEcnEu4sz4z-8" style="edgeStyle=orthogonalEdgeStyle;rounded=0;orthogonalLoop=1;jettySize=auto;html=1;" parent="WIyWlLk6GJQsqaUBKTNV-1" source="4mX_bAGIScEcnEu4sz4z-2" target="4mX_bAGIScEcnEu4sz4z-5" edge="1">
          <mxGeometry relative="1" as="geometry" />
        </mxCell>
        <mxCell id="aLWyI7-TYUEWNC-_CzKk-5" style="edgeStyle=orthogonalEdgeStyle;rounded=0;orthogonalLoop=1;jettySize=auto;html=1;entryX=0;entryY=0.5;entryDx=0;entryDy=0;" edge="1" parent="WIyWlLk6GJQsqaUBKTNV-1" source="4mX_bAGIScEcnEu4sz4z-2" target="aLWyI7-TYUEWNC-_CzKk-2">
          <mxGeometry relative="1" as="geometry" />
        </mxCell>
        <mxCell id="aLWyI7-TYUEWNC-_CzKk-17" style="edgeStyle=orthogonalEdgeStyle;rounded=0;orthogonalLoop=1;jettySize=auto;html=1;entryX=0.5;entryY=0;entryDx=0;entryDy=0;" edge="1" parent="WIyWlLk6GJQsqaUBKTNV-1" source="4mX_bAGIScEcnEu4sz4z-2" target="aLWyI7-TYUEWNC-_CzKk-15">
          <mxGeometry relative="1" as="geometry" />
        </mxCell>
        <mxCell id="4mX_bAGIScEcnEu4sz4z-2" value="Null model&lt;br&gt;config&lt;br&gt;&amp;nbsp;" style="strokeWidth=2;html=1;shape=mxgraph.flowchart.document2;whiteSpace=wrap;size=0.25;" parent="WIyWlLk6GJQsqaUBKTNV-1" vertex="1">
          <mxGeometry x="-1130" y="170" width="100" height="60" as="geometry" />
        </mxCell>
        <mxCell id="aLWyI7-TYUEWNC-_CzKk-9" style="edgeStyle=orthogonalEdgeStyle;rounded=0;orthogonalLoop=1;jettySize=auto;html=1;entryX=1;entryY=0.5;entryDx=0;entryDy=0;" edge="1" parent="WIyWlLk6GJQsqaUBKTNV-1" source="4mX_bAGIScEcnEu4sz4z-3" target="aLWyI7-TYUEWNC-_CzKk-7">
          <mxGeometry relative="1" as="geometry" />
        </mxCell>
        <mxCell id="aLWyI7-TYUEWNC-_CzKk-12" style="edgeStyle=orthogonalEdgeStyle;rounded=0;orthogonalLoop=1;jettySize=auto;html=1;entryX=0.5;entryY=0;entryDx=0;entryDy=0;" edge="1" parent="WIyWlLk6GJQsqaUBKTNV-1" source="4mX_bAGIScEcnEu4sz4z-3" target="aLWyI7-TYUEWNC-_CzKk-11">
          <mxGeometry relative="1" as="geometry" />
        </mxCell>
        <mxCell id="aLWyI7-TYUEWNC-_CzKk-50" style="edgeStyle=orthogonalEdgeStyle;rounded=0;orthogonalLoop=1;jettySize=auto;html=1;entryX=1;entryY=0.5;entryDx=0;entryDy=0;" edge="1" parent="WIyWlLk6GJQsqaUBKTNV-1" source="4mX_bAGIScEcnEu4sz4z-3" target="4mX_bAGIScEcnEu4sz4z-6">
          <mxGeometry relative="1" as="geometry">
            <mxPoint x="-620" y="190" as="targetPoint" />
          </mxGeometry>
        </mxCell>
        <mxCell id="4mX_bAGIScEcnEu4sz4z-3" value="Alternative &lt;br&gt;model config&lt;br&gt;&amp;nbsp;" style="strokeWidth=2;html=1;shape=mxgraph.flowchart.document2;whiteSpace=wrap;size=0.25;" parent="WIyWlLk6GJQsqaUBKTNV-1" vertex="1">
          <mxGeometry x="-450" y="170" width="100" height="60" as="geometry" />
        </mxCell>
        <mxCell id="4mX_bAGIScEcnEu4sz4z-9" style="edgeStyle=orthogonalEdgeStyle;rounded=0;orthogonalLoop=1;jettySize=auto;html=1;" parent="WIyWlLk6GJQsqaUBKTNV-1" source="4mX_bAGIScEcnEu4sz4z-4" target="4mX_bAGIScEcnEu4sz4z-5" edge="1">
          <mxGeometry relative="1" as="geometry">
            <Array as="points">
              <mxPoint x="-740" y="150" />
              <mxPoint x="-860" y="150" />
            </Array>
          </mxGeometry>
        </mxCell>
        <mxCell id="4mX_bAGIScEcnEu4sz4z-10" style="edgeStyle=orthogonalEdgeStyle;rounded=0;orthogonalLoop=1;jettySize=auto;html=1;" parent="WIyWlLk6GJQsqaUBKTNV-1" source="4mX_bAGIScEcnEu4sz4z-4" target="4mX_bAGIScEcnEu4sz4z-6" edge="1">
          <mxGeometry relative="1" as="geometry" />
        </mxCell>
        <mxCell id="aLWyI7-TYUEWNC-_CzKk-6" style="edgeStyle=orthogonalEdgeStyle;rounded=0;orthogonalLoop=1;jettySize=auto;html=1;" edge="1" parent="WIyWlLk6GJQsqaUBKTNV-1" source="4mX_bAGIScEcnEu4sz4z-4" target="4mX_bAGIScEcnEu4sz4z-13">
          <mxGeometry relative="1" as="geometry" />
        </mxCell>
        <mxCell id="aLWyI7-TYUEWNC-_CzKk-14" style="edgeStyle=orthogonalEdgeStyle;rounded=0;orthogonalLoop=1;jettySize=auto;html=1;entryX=1;entryY=0.5;entryDx=0;entryDy=0;jumpStyle=none;" edge="1" parent="WIyWlLk6GJQsqaUBKTNV-1" source="4mX_bAGIScEcnEu4sz4z-4" target="aLWyI7-TYUEWNC-_CzKk-11">
          <mxGeometry relative="1" as="geometry">
            <Array as="points">
              <mxPoint x="-740" y="150" />
              <mxPoint x="-320" y="150" />
              <mxPoint x="-320" y="600" />
            </Array>
          </mxGeometry>
        </mxCell>
        <mxCell id="aLWyI7-TYUEWNC-_CzKk-44" style="edgeStyle=orthogonalEdgeStyle;rounded=0;orthogonalLoop=1;jettySize=auto;html=1;entryX=0;entryY=0.5;entryDx=0;entryDy=0;" edge="1" parent="WIyWlLk6GJQsqaUBKTNV-1" source="4mX_bAGIScEcnEu4sz4z-4" target="aLWyI7-TYUEWNC-_CzKk-15">
          <mxGeometry relative="1" as="geometry">
            <Array as="points">
              <mxPoint x="-740" y="150" />
              <mxPoint x="-1160" y="150" />
              <mxPoint x="-1160" y="600" />
            </Array>
          </mxGeometry>
        </mxCell>
        <mxCell id="4mX_bAGIScEcnEu4sz4z-4" value="Observed&lt;br&gt;lightcurve" style="shape=parallelogram;html=1;strokeWidth=2;perimeter=parallelogramPerimeter;whiteSpace=wrap;rounded=1;arcSize=12;size=0.23;" parent="WIyWlLk6GJQsqaUBKTNV-1" vertex="1">
          <mxGeometry x="-800" y="80" width="120" height="40" as="geometry" />
        </mxCell>
        <mxCell id="4mX_bAGIScEcnEu4sz4z-22" style="edgeStyle=orthogonalEdgeStyle;rounded=0;orthogonalLoop=1;jettySize=auto;html=1;" parent="WIyWlLk6GJQsqaUBKTNV-1" source="4mX_bAGIScEcnEu4sz4z-5" target="4mX_bAGIScEcnEu4sz4z-21" edge="1">
          <mxGeometry relative="1" as="geometry" />
        </mxCell>
        <mxCell id="4mX_bAGIScEcnEu4sz4z-5" value="Fit null model&lt;br&gt;(celerite_script.py)" style="rounded=1;whiteSpace=wrap;html=1;absoluteArcSize=1;arcSize=14;strokeWidth=2;" parent="WIyWlLk6GJQsqaUBKTNV-1" vertex="1">
          <mxGeometry x="-920" y="180" width="120" height="40" as="geometry" />
        </mxCell>
        <mxCell id="4mX_bAGIScEcnEu4sz4z-23" style="edgeStyle=orthogonalEdgeStyle;rounded=0;orthogonalLoop=1;jettySize=auto;html=1;" parent="WIyWlLk6GJQsqaUBKTNV-1" source="4mX_bAGIScEcnEu4sz4z-6" target="4mX_bAGIScEcnEu4sz4z-20" edge="1">
          <mxGeometry relative="1" as="geometry" />
        </mxCell>
        <mxCell id="4mX_bAGIScEcnEu4sz4z-6" value="Fit alternative model&lt;br&gt;(celerite_script.py)" style="rounded=1;whiteSpace=wrap;html=1;absoluteArcSize=1;arcSize=14;strokeWidth=2;" parent="WIyWlLk6GJQsqaUBKTNV-1" vertex="1">
          <mxGeometry x="-680" y="180" width="120" height="40" as="geometry" />
        </mxCell>
        <mxCell id="4mX_bAGIScEcnEu4sz4z-13" value="Generate DRW &lt;br&gt;lightcurves from fit&lt;br&gt;(generate_lcs_significance.py)" style="rounded=1;whiteSpace=wrap;html=1;absoluteArcSize=1;arcSize=14;strokeWidth=2;" parent="WIyWlLk6GJQsqaUBKTNV-1" vertex="1">
          <mxGeometry x="-830" y="370" width="180" height="60" as="geometry" />
        </mxCell>
        <mxCell id="4mX_bAGIScEcnEu4sz4z-20" value="Alternative model &lt;br&gt;MCMC samples&lt;br&gt;(samples.dat)" style="strokeWidth=2;html=1;shape=mxgraph.flowchart.stored_data;whiteSpace=wrap;" parent="WIyWlLk6GJQsqaUBKTNV-1" vertex="1">
          <mxGeometry x="-680" y="250" width="120" height="60" as="geometry" />
        </mxCell>
        <mxCell id="4mX_bAGIScEcnEu4sz4z-24" style="edgeStyle=orthogonalEdgeStyle;rounded=0;orthogonalLoop=1;jettySize=auto;html=1;" parent="WIyWlLk6GJQsqaUBKTNV-1" source="4mX_bAGIScEcnEu4sz4z-21" target="4mX_bAGIScEcnEu4sz4z-13" edge="1">
          <mxGeometry relative="1" as="geometry" />
        </mxCell>
        <mxCell id="4mX_bAGIScEcnEu4sz4z-21" value="DRW model &lt;br&gt;MCMC samples&lt;br&gt;(samples.dat)" style="strokeWidth=2;html=1;shape=mxgraph.flowchart.stored_data;whiteSpace=wrap;" parent="WIyWlLk6GJQsqaUBKTNV-1" vertex="1">
          <mxGeometry x="-920" y="250" width="120" height="60" as="geometry" />
        </mxCell>
        <mxCell id="aLWyI7-TYUEWNC-_CzKk-3" style="edgeStyle=orthogonalEdgeStyle;rounded=0;orthogonalLoop=1;jettySize=auto;html=1;" edge="1" parent="WIyWlLk6GJQsqaUBKTNV-1" source="aLWyI7-TYUEWNC-_CzKk-0" target="aLWyI7-TYUEWNC-_CzKk-2">
          <mxGeometry relative="1" as="geometry" />
        </mxCell>
        <mxCell id="aLWyI7-TYUEWNC-_CzKk-10" style="edgeStyle=orthogonalEdgeStyle;rounded=0;orthogonalLoop=1;jettySize=auto;html=1;entryX=0.5;entryY=0;entryDx=0;entryDy=0;" edge="1" parent="WIyWlLk6GJQsqaUBKTNV-1" source="aLWyI7-TYUEWNC-_CzKk-0" target="aLWyI7-TYUEWNC-_CzKk-7">
          <mxGeometry relative="1" as="geometry" />
        </mxCell>
        <mxCell id="aLWyI7-TYUEWNC-_CzKk-0" value="Synthetic DRW &lt;br&gt;model lightcurves&lt;br&gt;(lightcurves/lc_*.dat)" style="strokeWidth=2;html=1;shape=mxgraph.flowchart.stored_data;whiteSpace=wrap;" vertex="1" parent="WIyWlLk6GJQsqaUBKTNV-1">
          <mxGeometry x="-830" y="450" width="180" height="60" as="geometry" />
        </mxCell>
        <mxCell id="aLWyI7-TYUEWNC-_CzKk-1" style="edgeStyle=orthogonalEdgeStyle;rounded=0;orthogonalLoop=1;jettySize=auto;html=1;entryX=0.5;entryY=0;entryDx=0;entryDy=0;entryPerimeter=0;" edge="1" parent="WIyWlLk6GJQsqaUBKTNV-1" source="4mX_bAGIScEcnEu4sz4z-13" target="aLWyI7-TYUEWNC-_CzKk-0">
          <mxGeometry relative="1" as="geometry" />
        </mxCell>
        <mxCell id="aLWyI7-TYUEWNC-_CzKk-2" value="Fit synthetic lightcurves &lt;br&gt;to null model&lt;br&gt;(fit_lcs.py)" style="rounded=1;whiteSpace=wrap;html=1;absoluteArcSize=1;arcSize=14;strokeWidth=2;" vertex="1" parent="WIyWlLk6GJQsqaUBKTNV-1">
          <mxGeometry x="-970" y="570" width="180" height="60" as="geometry" />
        </mxCell>
        <mxCell id="aLWyI7-TYUEWNC-_CzKk-7" value="Fit synthetic lightcurves &lt;br&gt;to alternative model&lt;br&gt;(fit_lcs.py)" style="rounded=1;whiteSpace=wrap;html=1;absoluteArcSize=1;arcSize=14;strokeWidth=2;" vertex="1" parent="WIyWlLk6GJQsqaUBKTNV-1">
          <mxGeometry x="-690" y="570" width="180" height="60" as="geometry" />
        </mxCell>
        <mxCell id="aLWyI7-TYUEWNC-_CzKk-22" style="edgeStyle=orthogonalEdgeStyle;rounded=0;orthogonalLoop=1;jettySize=auto;html=1;" edge="1" parent="WIyWlLk6GJQsqaUBKTNV-1" source="aLWyI7-TYUEWNC-_CzKk-11" target="aLWyI7-TYUEWNC-_CzKk-21">
          <mxGeometry relative="1" as="geometry" />
        </mxCell>
        <mxCell id="aLWyI7-TYUEWNC-_CzKk-11" value="Fit real lightcurve &lt;br&gt;to alternative model&lt;br&gt;(fit_lcs.py)" style="rounded=1;whiteSpace=wrap;html=1;absoluteArcSize=1;arcSize=14;strokeWidth=2;" vertex="1" parent="WIyWlLk6GJQsqaUBKTNV-1">
          <mxGeometry x="-460" y="570" width="120" height="60" as="geometry" />
        </mxCell>
        <mxCell id="aLWyI7-TYUEWNC-_CzKk-15" value="Fit real lightcurve &lt;br&gt;to null model&lt;br&gt;(fit_lcs.py)" style="rounded=1;whiteSpace=wrap;html=1;absoluteArcSize=1;arcSize=14;strokeWidth=2;" vertex="1" parent="WIyWlLk6GJQsqaUBKTNV-1">
          <mxGeometry x="-1140" y="570" width="120" height="60" as="geometry" />
        </mxCell>
        <mxCell id="aLWyI7-TYUEWNC-_CzKk-47" style="edgeStyle=orthogonalEdgeStyle;rounded=0;orthogonalLoop=1;jettySize=auto;html=1;entryX=0;entryY=0.5;entryDx=0;entryDy=0;exitX=0.5;exitY=1;exitDx=0;exitDy=0;exitPerimeter=0;" edge="1" parent="WIyWlLk6GJQsqaUBKTNV-1" source="aLWyI7-TYUEWNC-_CzKk-19" target="aLWyI7-TYUEWNC-_CzKk-28">
          <mxGeometry relative="1" as="geometry" />
        </mxCell>
        <mxCell id="aLWyI7-TYUEWNC-_CzKk-19" value="Null data fits&lt;br&gt;(fits_results.dat)" style="strokeWidth=2;html=1;shape=mxgraph.flowchart.stored_data;whiteSpace=wrap;" vertex="1" parent="WIyWlLk6GJQsqaUBKTNV-1">
          <mxGeometry x="-1140" y="660" width="120" height="40" as="geometry" />
        </mxCell>
        <mxCell id="aLWyI7-TYUEWNC-_CzKk-20" style="edgeStyle=orthogonalEdgeStyle;rounded=0;orthogonalLoop=1;jettySize=auto;html=1;entryX=0.5;entryY=0;entryDx=0;entryDy=0;entryPerimeter=0;" edge="1" parent="WIyWlLk6GJQsqaUBKTNV-1" source="aLWyI7-TYUEWNC-_CzKk-15" target="aLWyI7-TYUEWNC-_CzKk-19">
          <mxGeometry relative="1" as="geometry" />
        </mxCell>
        <mxCell id="aLWyI7-TYUEWNC-_CzKk-46" style="edgeStyle=orthogonalEdgeStyle;rounded=0;orthogonalLoop=1;jettySize=auto;html=1;entryX=1;entryY=0.5;entryDx=0;entryDy=0;exitX=0.5;exitY=1;exitDx=0;exitDy=0;exitPerimeter=0;" edge="1" parent="WIyWlLk6GJQsqaUBKTNV-1" source="aLWyI7-TYUEWNC-_CzKk-21" target="aLWyI7-TYUEWNC-_CzKk-28">
          <mxGeometry relative="1" as="geometry" />
        </mxCell>
        <mxCell id="aLWyI7-TYUEWNC-_CzKk-21" value="Alt data fits&lt;br&gt;(fits_results.dat)" style="strokeWidth=2;html=1;shape=mxgraph.flowchart.stored_data;whiteSpace=wrap;" vertex="1" parent="WIyWlLk6GJQsqaUBKTNV-1">
          <mxGeometry x="-460" y="660" width="120" height="40" as="geometry" />
        </mxCell>
        <mxCell id="aLWyI7-TYUEWNC-_CzKk-32" style="edgeStyle=orthogonalEdgeStyle;rounded=0;orthogonalLoop=1;jettySize=auto;html=1;entryX=0;entryY=0.5;entryDx=0;entryDy=0;" edge="1" parent="WIyWlLk6GJQsqaUBKTNV-1" source="aLWyI7-TYUEWNC-_CzKk-23" target="aLWyI7-TYUEWNC-_CzKk-28">
          <mxGeometry relative="1" as="geometry" />
        </mxCell>
        <mxCell id="aLWyI7-TYUEWNC-_CzKk-23" value="Null simulation fits&lt;br&gt;(fits_results.dat)" style="strokeWidth=2;html=1;shape=mxgraph.flowchart.stored_data;whiteSpace=wrap;" vertex="1" parent="WIyWlLk6GJQsqaUBKTNV-1">
          <mxGeometry x="-940" y="660" width="120" height="40" as="geometry" />
        </mxCell>
        <mxCell id="aLWyI7-TYUEWNC-_CzKk-25" style="edgeStyle=orthogonalEdgeStyle;rounded=0;orthogonalLoop=1;jettySize=auto;html=1;entryX=0.5;entryY=0;entryDx=0;entryDy=0;entryPerimeter=0;" edge="1" parent="WIyWlLk6GJQsqaUBKTNV-1" source="aLWyI7-TYUEWNC-_CzKk-2" target="aLWyI7-TYUEWNC-_CzKk-23">
          <mxGeometry relative="1" as="geometry" />
        </mxCell>
        <mxCell id="aLWyI7-TYUEWNC-_CzKk-29" style="edgeStyle=orthogonalEdgeStyle;rounded=0;orthogonalLoop=1;jettySize=auto;html=1;entryX=1;entryY=0.5;entryDx=0;entryDy=0;" edge="1" parent="WIyWlLk6GJQsqaUBKTNV-1" source="aLWyI7-TYUEWNC-_CzKk-26" target="aLWyI7-TYUEWNC-_CzKk-28">
          <mxGeometry relative="1" as="geometry" />
        </mxCell>
        <mxCell id="aLWyI7-TYUEWNC-_CzKk-26" value="Alt simulation fits&lt;br&gt;(fits_results.dat)" style="strokeWidth=2;html=1;shape=mxgraph.flowchart.stored_data;whiteSpace=wrap;" vertex="1" parent="WIyWlLk6GJQsqaUBKTNV-1">
          <mxGeometry x="-660" y="660" width="120" height="40" as="geometry" />
        </mxCell>
        <mxCell id="aLWyI7-TYUEWNC-_CzKk-27" style="edgeStyle=orthogonalEdgeStyle;rounded=0;orthogonalLoop=1;jettySize=auto;html=1;entryX=0.5;entryY=0;entryDx=0;entryDy=0;entryPerimeter=0;" edge="1" parent="WIyWlLk6GJQsqaUBKTNV-1" source="aLWyI7-TYUEWNC-_CzKk-7" target="aLWyI7-TYUEWNC-_CzKk-26">
          <mxGeometry relative="1" as="geometry" />
        </mxCell>
        <mxCell id="aLWyI7-TYUEWNC-_CzKk-34" style="edgeStyle=orthogonalEdgeStyle;rounded=0;orthogonalLoop=1;jettySize=auto;html=1;" edge="1" parent="WIyWlLk6GJQsqaUBKTNV-1" source="aLWyI7-TYUEWNC-_CzKk-28" target="aLWyI7-TYUEWNC-_CzKk-33">
          <mxGeometry relative="1" as="geometry" />
        </mxCell>
        <mxCell id="aLWyI7-TYUEWNC-_CzKk-28" value="Test hypothesis&lt;br&gt;(plot_ratio_test.py)" style="rounded=1;whiteSpace=wrap;html=1;absoluteArcSize=1;arcSize=14;strokeWidth=2;" vertex="1" parent="WIyWlLk6GJQsqaUBKTNV-1">
          <mxGeometry x="-826" y="740" width="180" height="40" as="geometry" />
        </mxCell>
        <mxCell id="aLWyI7-TYUEWNC-_CzKk-33" value="Improvement ratios&lt;br&gt;(T_ratio.dat)" style="strokeWidth=2;html=1;shape=mxgraph.flowchart.stored_data;whiteSpace=wrap;" vertex="1" parent="WIyWlLk6GJQsqaUBKTNV-1">
          <mxGeometry x="-806" y="820" width="140" height="40" as="geometry" />
        </mxCell>
        <mxCell id="aLWyI7-TYUEWNC-_CzKk-36" style="edgeStyle=orthogonalEdgeStyle;rounded=0;orthogonalLoop=1;jettySize=auto;html=1;entryX=0;entryY=0.5;entryDx=0;entryDy=0;" edge="1" parent="WIyWlLk6GJQsqaUBKTNV-1" source="aLWyI7-TYUEWNC-_CzKk-35" target="4mX_bAGIScEcnEu4sz4z-13">
          <mxGeometry relative="1" as="geometry" />
        </mxCell>
        <mxCell id="aLWyI7-TYUEWNC-_CzKk-35" value="&lt;br&gt;Processes" style="html=1;strokeWidth=2;shape=manualInput;whiteSpace=wrap;rounded=1;size=26;arcSize=11;" vertex="1" parent="WIyWlLk6GJQsqaUBKTNV-1">
          <mxGeometry x="-950" y="370" width="100" height="60" as="geometry" />
        </mxCell>
        <mxCell id="aLWyI7-TYUEWNC-_CzKk-38" style="edgeStyle=orthogonalEdgeStyle;rounded=0;orthogonalLoop=1;jettySize=auto;html=1;entryX=1;entryY=0.5;entryDx=0;entryDy=0;" edge="1" parent="WIyWlLk6GJQsqaUBKTNV-1" source="aLWyI7-TYUEWNC-_CzKk-37" target="4mX_bAGIScEcnEu4sz4z-13">
          <mxGeometry relative="1" as="geometry" />
        </mxCell>
        <mxCell id="aLWyI7-TYUEWNC-_CzKk-37" value="&lt;br&gt;&lt;br&gt;Lightcurves&lt;br&gt;to generate" style="html=1;strokeWidth=2;shape=manualInput;whiteSpace=wrap;rounded=1;size=26;arcSize=11;" vertex="1" parent="WIyWlLk6GJQsqaUBKTNV-1">
          <mxGeometry x="-620" y="370" width="100" height="60" as="geometry" />
        </mxCell>
        <mxCell id="aLWyI7-TYUEWNC-_CzKk-45" style="edgeStyle=orthogonalEdgeStyle;rounded=0;orthogonalLoop=1;jettySize=auto;html=1;" edge="1" parent="WIyWlLk6GJQsqaUBKTNV-1" source="aLWyI7-TYUEWNC-_CzKk-39" target="aLWyI7-TYUEWNC-_CzKk-2">
          <mxGeometry relative="1" as="geometry" />
        </mxCell>
        <mxCell id="aLWyI7-TYUEWNC-_CzKk-39" value="&lt;br&gt;Processes" style="html=1;strokeWidth=2;shape=manualInput;whiteSpace=wrap;rounded=1;size=26;arcSize=11;" vertex="1" parent="WIyWlLk6GJQsqaUBKTNV-1">
          <mxGeometry x="-950" y="450" width="100" height="60" as="geometry" />
        </mxCell>
        <mxCell id="aLWyI7-TYUEWNC-_CzKk-42" style="edgeStyle=orthogonalEdgeStyle;rounded=0;orthogonalLoop=1;jettySize=auto;html=1;entryX=0.5;entryY=0;entryDx=0;entryDy=0;" edge="1" parent="WIyWlLk6GJQsqaUBKTNV-1" source="aLWyI7-TYUEWNC-_CzKk-41" target="aLWyI7-TYUEWNC-_CzKk-7">
          <mxGeometry relative="1" as="geometry" />
        </mxCell>
        <mxCell id="aLWyI7-TYUEWNC-_CzKk-41" value="&lt;br&gt;Processes" style="html=1;strokeWidth=2;shape=manualInput;whiteSpace=wrap;rounded=1;size=26;arcSize=11;" vertex="1" parent="WIyWlLk6GJQsqaUBKTNV-1">
          <mxGeometry x="-620" y="450" width="100" height="60" as="geometry" />
        </mxCell>
      </root>
    </mxGraphModel>
  </diagram>
</mxfile>
